<?xml version="1.0" encoding="UTF-8"?>
<svg version="1.1" viewBox="0 0 1600 896" width="1280" height="1280" xmlns="http://www.w3.org/2000/svg">
<path transform="translate(0)" d="m0 0h1600v896h-1600v-896z" fill="#FCFCFC"/>
<path transform="translate(1600,217)" d="m0 0v354h-2c-0.0103 0.967-0.0206 1.93-0.0312 2.93-0.099 9.25-0.202 18.5-0.308 27.7-0.0545 4.75-0.108 9.5-0.158 14.3-0.227 21.4-0.52 42.7-1.5 64.1-17.8 1.23-35.6 1.15-53.4 1.13-3.59-0.00191-7.17-2.17e-4 -10.8 0.00145-10.8 0.00498-21.6 2.92e-4 -32.4-0.00689-6.19-0.00404-12.4-0.00586-18.6-0.00747-65.1-0.019-130-0.213-195-0.527-5.42-0.0261-10.8-0.0512-16.3-0.0759-11.4-0.0519-22.7-0.109-34.1-0.171-3.75-0.0203-7.5-0.0391-11.3-0.0563-0.893-0.00425-1.79-0.00851-2.71-0.0129-1.61-0.00764-3.23-0.0149-4.84-0.0216-2.68-0.013-5.37-0.0314-8.05-0.0511-0.695-0.00482-1.39-0.00964-2.11-0.0146-11.9-0.0866-23.7-0.311-35.6-0.629-21.8-0.574-43.6-0.691-65.5-0.648-5.04 0.00866-10.1 0.0111-15.1 0.0143-8.68 0.00621-17.4 0.0159-26 0.0279-12.6 0.0172-25.1 0.0266-37.7 0.0339-20.4 0.0119-40.8 0.0268-61.2 0.0451-1.21 0.00109-2.43 0.00218-3.67 0.0033-13.6 0.0123-27.2 0.0259-40.7 0.0413-1.84 0.00209-1.84 0.00209-3.72 0.00423-2.48 0.00282-4.96 0.00564-7.43 0.00846-1.22 0.00139-2.45 0.00279-3.71 0.00422-1.83 0.00209-1.83 0.00209-3.71 0.00422-20.4 0.023-40.7 0.0383-61.1 0.0473-12.5 0.00585-25.1 0.0182-37.6 0.039-8.56 0.0137-17.1 0.0202-25.7 0.021-4.94 7.06e-4 -9.87 0.00474-14.8 0.0175-4.51 0.0116-9.03 0.014-13.5 0.00906-1.64-1.52e-4 -3.27 0.00312-4.91 0.0101-2.22 0.00894-4.43 0.00566-6.65-7.85e-4 -1.85 0.00195-1.85 0.00195-3.74 0.00394-2.98-0.237-4.65-0.585-7.1-2.25-1.5-3-1.18-6.1-1.21-9.39-0.0099-0.761-0.0198-1.52-0.03-2.31-0.0316-2.52-0.0564-5.04-0.0811-7.56-0.0206-1.75-0.0416-3.49-0.063-5.24-0.0552-4.6-0.105-9.2-0.153-13.8-0.0502-4.69-0.106-9.38-0.161-14.1-0.108-9.21-0.209-18.4-0.307-27.6-1.97 0.348-1.97 0.348-4 1-0.699 1.32-1.37 2.65-2 4-0.99 0.33-1.98 0.66-3 1-0.33 0.66-0.66 1.32-1 2-0.33 0.66-0.66 1.32-1 2-0.99 0.33-1.98 0.66-3 1-0.33 0.66-0.66 1.32-1 2-0.33 0.66-0.66 1.32-1 2-0.99 0.33-1.98 0.66-3 1-0.268 0.619-0.536 1.24-0.812 1.88-1.79 3.2-3.79 3.87-7.19 5.12-11 1.2-23.7-1.97-33-8-6.17-5.02-7.08-10.4-8-18-0.157-2.96-0.19-5.91-0.188-8.88l-0.00195-2.41c0.0499-5.52 0.763-10.4 2.19-15.7 0.17-3.38 0.17-3.38 0-6-4.3 1.58-7.63 3.71-11.3 6.37-2.67 1.63-2.67 1.63-4.88 2.37-4.78 1.58-4.78 1.58-7.85 5.32-0.671 2.6-1.11 5.16-1.5 7.81-2.52 13.3-8.13 26.1-19.5 34.4-0.651 0.48-1.3 0.959-1.97 1.45-4.72 3.12-8.42 3.59-14.1 3.61-1.66 0.023-3.31 0.0463-4.97 0.0701-0.869 0.00917-1.74 0.0183-2.63 0.0278-13.9 0.16-27.7 0.626-41.5 2.03-1.23 0.122-2.46 0.245-3.73 0.371-7.27 0.712-7.27 0.712-14.1 3.19-1.34 3.1-1.34 3.1-2.06 6.75-2.62 11.3-9.73 18.1-19.3 24.2-3.8 2.31-6.94 3.19-11.4 3.27-0.971 0.0199-1.94 0.0399-2.94 0.0604-1.06 0.0167-2.11 0.0335-3.2 0.0507-1.65 0.0314-1.65 0.0314-3.33 0.0635-3.57 0.0664-7.14 0.125-10.7 0.183-1.21 0.0202-2.42 0.0404-3.66 0.0612-7.11 0.118-14.2 0.226-21.3 0.33-2.69 0.0409-5.37 0.0874-8.06 0.138-41.1 0.769-41.1 0.769-57-13.1v-2c-0.559-0.253-1.12-0.505-1.7-0.766-7.65-4.1-12.4-9.54-15.3-17.7-1.26-3.62-1.26-3.62-3-6.56-2.56-1.04-4.67-1.12-7.41-1.29-5.69-1.56-8.54-8.02-11.6-12.7-1.35-1.92-2.7-3.84-4.06-5.75-0.981-1.42-1.96-2.83-2.94-4.25-3.84 0.599-6.75 1.78-10.2 3.56-5.35 2.44-9.99 4.09-15.8 2.44-2.81-1.86-5.22-3.85-7.68-6.15-2.56-2.03-4.09-2.6-7.32-2.85-0.99 0.33-1.98 0.66-3 1-2.73 0.0861-5.44 0.117-8.17 0.0938-1.21-0.00538-1.21-0.00538-2.44-0.0109-7.2-0.0477-14.4-0.261-21.6-0.51-11.4-0.39-22.7-0.611-34.1-0.534-1.03 0.0059-2.05 0.0118-3.11 0.0179-5.07 0.0315-10.1 0.0812-15.2 0.156-1.86 0.0155-3.71 0.0305-5.57 0.0449-0.855 0.0187-1.71 0.0373-2.59 0.0565-5.86 0.0254-5.86 0.0254-7.98-1.67-1.3-1.64-1.3-1.64-2.06-4.24-0.41-0.794-0.82-1.59-1.24-2.41-3.14-1.09-3.14-1.09-6.88-1.5-18-2.98-33-13.4-47.1-24.5l-1.9-1.46c-2.59-2.06-4.3-3.85-6.13-6.64-1.66-2.01-2.56-2.79-5.12-3.42-2.68-0.167-5.29-0.147-7.97-0.0587-0.97 0.00849-1.94 0.017-2.94 0.0257-3.09 0.0335-6.17 0.109-9.26 0.185-2.1 0.0301-4.19 0.0575-6.29 0.082-5.13 0.0661-10.3 0.17-15.4 0.293-1.39-5.11-0.411-9.45 0.438-14.6 0.176-1.08 0.352-2.16 0.534-3.28 3.19-18.6 7.12-37.7 13.3-55.6 0.23-0.663 0.46-1.33 0.697-2.01 1.27-3.36 1.89-4.43 4.99-6.49l10 8c-1.71-6.67-3.11-11.1-8-16-0.66-0.33-1.32-0.66-2-1 0.229-1.92 0.484-3.84 0.75-5.75 0.139-1.07 0.278-2.13 0.422-3.23 0.828-3.02 0.828-3.02 4.83-7.02 4.62 1.98 9.24 3.96 14 6-0.99-2.97-1.98-5.94-3-9 4.18 1.04 4.65 1.34 7.12 4.5 2.07 2.69 2.07 2.69 4.88 4.5v2c0.722 0.206 1.44 0.413 2.19 0.625 3.76 1.84 5.26 4.07 7.81 7.38l2 2-1.98 1.79c-2.98 4.75-2.45 9.04-2.27 14.5l0.0547 3.11c0.047 2.53 0.113 5.05 0.195 7.58 0.636 0.29 1.27 0.579 1.93 0.878 2.64 1.43 3.05 2.61 4.14 5.37 0.334 0.803 0.668 1.61 1.01 2.43l0.926 2.32c2.12 5.12 4.19 7.22 9 10-0.289-0.759-0.577-1.52-0.875-2.3-0.371-0.994-0.742-1.99-1.12-3.01l-1.12-2.99c-0.875-2.7-0.875-2.7-0.875-5.7h2c4 5.29 4 5.29 4 9l1.76-0.316c2.65-0.275 4.65-0.316 7.24 0.316 2.62 2.67 4.22 5.73 6 9 0.978 1.35 1.97 2.69 3 4l-1.5-3.25c-1.39-3-1.5-4.21-1.5-7.75h2c1.38 1.91 1.38 1.91 3 4.62 9.97 16.1 20.1 31.3 39.2 36.8 5.05 1.09 10.1 1.11 15.3 1.17 2.12 0.0344 4.25 0.077 6.37 0.129 0.926 0.0123 1.85 0.0247 2.81 0.0374 2.39 0.271 2.39 0.271 5.39 2.27l-1 3c1.12-0.416 1.12-0.416 2.27-0.84 0.985-0.362 1.97-0.724 2.98-1.1 0.975-0.36 1.95-0.719 2.95-1.09 4.92-1.71 4.92-1.71 6.8-1.97 0.66 0.66 1.32 1.32 2 2 6.6 0.275 9.97-3.05 14.8-7.29 2.23-1.71 2.23-1.71 5.23-1.71 0.33 0.66 0.66 1.32 1 2 1.95-0.195 1.95-0.195 4-1 1.28-1.98 1.28-1.98 2-4 1.65 0.33 3.3 0.66 5 1 0.112-3.19 0.0826-5.06-1-8-2.86-3.06-6.38-4.93-10-7-1.03-0.625-1.03-0.625-2.08-1.26-11.4-6.87-19.7-9.77-32.9-9.74-2.69-0.352-5.3-0.859-7.95-1.41-2.47-0.481-4.92-0.885-7.41-1.25-8.13-1.21-15.3-2.4-22.6-6.34l1-3 18 4c-2.8-2.8-5.99-2.98-9.75-3.75-15.1-3.35-31.1-10.1-42.2-21.2-1.38-2.81-1.38-2.81-2-5 3.57 1.32 6.64 2.9 9.81 5l2.39 1.56 1.79 1.44v2c7.32 3.78 15 7 23 9-0.99-2.31-1.98-4.62-3-7 4.23 0.62 7.52 2.11 11.3 4.06l3.24 1.66 2.45 1.28-1-5c4.15 1.28 7.81 2.87 11.6 4.94 5.96 3.05 11.8 4.74 18.4 6.06-3.28-6.56-8.56-8.87-15-12v-2l-2.81-0.812c-2.95-1.1-4.24-1.81-6.19-4.19 5.29 0.264 7.94 2.27 11.9 5.44 4.51 3.39 9.44 5.86 15.1 6.56-0.351-0.536-0.701-1.07-1.06-1.62-1.23-3.11-0.666-5.17 0.0625-8.38 4.9 0.636 8.88 2.72 13.2 4.88 5.83 2.81 11.5 5.31 17.8 7.12-5.97-5.81-12.5-8.85-20.1-12.2-2.3-1.03-4.61-2.07-6.91-3.11-1.01-0.449-2.03-0.898-3.07-1.36-2.06-0.938-4.09-1.95-6.08-3.02-2.95-1.61-2.95-1.61-6.87-1.33l2 2v4c-4.54-1.6-8.39-3.94-12.4-6.5-1.05-0.663-1.05-0.663-2.12-1.34-11.3-7.21-21.7-14.9-31.4-24.2 0.33-0.66 0.66-1.32 1-2 0.701 0.784 1.4 1.57 2.12 2.38 2.97 2.71 5.03 3.64 8.88 4.62v-5c0.99-0.33 1.98-0.66 3-1l-1-4c3.96 1.43 7.29 3.33 10.8 5.62 0.976 0.632 1.95 1.26 2.96 1.91l2.23 1.46c-0.99-2.48-0.99-2.48-2-5 3.74 0.654 6.4 2.33 9.56 4.38 0.95 0.606 1.9 1.21 2.88 1.84 2.13 1.49 3.91 2.8 5.56 4.79v2c1.32 0.66 2.64 1.32 4 2-1.32 0.33-2.64 0.66-4 1 4.41 1.77 8.83 3.52 13.2 5.25 1.2 0.471 1.2 0.471 2.42 0.951 3.73 1.45 7.46 2.87 11.3 4.14 10.1 3.36 19.7 7.6 29.4 12 15.2 7.88 15.2 7.88 31.7 11.6-3.24-3.77-7.58-5.33-12-7.4-3-1.59-5.43-3.4-8.01-5.6 6.31 0.392 11.4 1.66 17.1 4.25 11.3 4.89 22.9 8.69 34.9 11.8-3.23-4.8-6.65-6.66-11.8-9-1.44-0.688-2.88-1.38-4.32-2.07-0.683-0.329-1.37-0.658-2.07-0.998-3.46-1.73-6.64-3.8-9.86-5.93-1.66-1.01-3.33-2.01-5-3 0.66-0.66 1.32-1.32 2-2 4.8 2.03 9.54 4.16 14.2 6.38 1.31 0.614 2.62 1.23 3.94 1.84 2.38 1.11 4.75 2.23 7.12 3.35 1.45 0.679 1.45 0.679 2.94 1.37l2.58 1.21c2.25 1.03 2.25 1.03 5.17 0.848-3.23-3.69-6.87-5.66-11.2-7.72-1.45-0.705-2.9-1.41-4.35-2.12-1.13-0.545-1.13-0.545-2.28-1.1-12.9-6.26-25.4-12.7-37.1-21.1-1.14-0.724-2.28-1.45-3.42-2.17-0.851-0.605-1.7-1.21-2.58-1.83v-2c5.34 0.539 9.14 2.39 13.8 4.94 0.737 0.398 1.47 0.796 2.23 1.21 3.86 2.1 7.7 4.24 11.5 6.39 7.46 4.2 14.9 8.29 22.7 12 0.683 0.326 1.37 0.652 2.07 0.989 4.18 1.94 8.28 3.35 12.7 4.51v2c1.98 0.33 3.96 0.66 6 1l-2-1.19c-3.69-2.23-7.35-4.52-11-6.81-1.5-0.938-3-1.88-4.5-2.81-1.17-0.729-2.33-1.46-3.5-2.19l2-2c0.762 0.338 1.52 0.675 2.31 1.02 6.21 2.68 12 4.76 18.7 5.98l-1.5-1.88c-1.5-2.12-1.5-2.12-1.5-4.12h-2l-1-3c14.8 3.08 14.8 3.08 21 5l1-5c0.99-0.33 1.98-0.66 3-1 0.733-2.02 0.733-2.02 1-4 3.19-0.0293 6.37-0.0469 9.56-0.0625 0.895-0.00838 1.79-0.0168 2.71-0.0254 5.02-0.0184 9.77 0.225 14.7 1.09v-1-2c-0.681-0.0825-1.36-0.165-2.06-0.25-6.91-1.76-12.3-6.43-17.7-10.9-1.31-1.07-2.61-2.13-3.92-3.2l-1.72-1.41c-1.48-1.16-3.04-2.22-4.61-3.27 0.33-0.66 0.66-1.32 1-2 0.797 0.433 1.59 0.866 2.41 1.31 1.06 0.557 2.12 1.11 3.21 1.69 1.04 0.557 2.09 1.11 3.16 1.69 3.41 1.39 5.57 1.72 9.21 1.31 1.49-0.99 1.49-0.99 3-2 3.14-0.208 3.14-0.208 7.02-0.148 0.702 0.00851 1.4 0.017 2.13 0.0258 2.28 0.0307 4.57 0.0764 6.85 0.123 1.53 0.0237 3.07 0.0468 4.6 0.0693 3.9 0.0623 7.81 0.149 11.7 0.248 1.6 0.0389 3.2 0.0736 4.81 0.104 2.36 0.0456 4.72 0.103 7.08 0.164 0.711 0.0116 1.42 0.0231 2.16 0.035 2.9 0.0862 5.29 0.225 7.97 1.39 3.19 1.19 5.69 1.23 9.1 1.2 1.28-0.00338 2.56-0.00676 3.88-0.0102 1.39-0.0135 2.78-0.0271 4.17-0.0408 1.44-0.00628 2.88-0.0115 4.32-0.0158 3.8-0.0133 7.59-0.0377 11.4-0.0654 6.05-0.0431 12.1-0.0731 18.1-0.096 2.09-0.0101 4.18-0.0271 6.28-0.045 21.1-0.106 21.1-0.106 29.8 2.62 14.3 3.88 30.9 1.53 45.6 0.438l2-4c0.804 0.825 1.61 1.65 2.44 2.5 3.24 2.67 5.58 2.8 9.79 2.54 3.43-0.0531 6.63 0.452 10 0.957 6.54 0.9 13 1.25 19.6 1.31 1.28 0.0261 1.28 0.0261 2.59 0.0527 8.55-0.00661 16-2.4 23.7-6.05 0.931-0.437 1.86-0.874 2.82-1.32 0.678-0.326 1.36-0.652 2.05-0.988 0.33 0.99 0.66 1.98 1 3h2c0.33 0.66 0.66 1.32 1 2 0.33-0.33 0.66-0.66 1-1h7c0.66-0.33 1.32-0.66 2-1 2.07-0.168 2.07-0.168 4.56-0.188 0.806-0.0142 1.61-0.0284 2.44-0.043 2.56 0.197 4.76 0.593 7.24 1.18 13.6 3.16 28 3.26 41.9 3.84 1.45 0.0623 2.91 0.132 4.36 0.208 8.14 0.419 15.5 0.737 22.5-3.99 2.81-2.56 2.81-2.56 5-5 0.99-0.33 1.98-0.66 3-1 1.12-1.65 1.12-1.65 2-4 0.804-1.61 0.804-1.61 1.62-3.25 3.11-8.59 2.5-18.9-0.688-27.4-2.44-5.13-5.39-8.11-9.94-11.4-1.02-0.982-2.02-1.98-3-3 7.13 2.01 12.4 7.45 15.9 13.8 4.12 7.98 4.64 18.3 1.94 26.9-0.585 1.45-1.21 2.89-1.88 4.31-0.437 0.967-0.874 1.93-1.32 2.93-2.88 6.05-5.95 12.2-10.7 17.1h-2c-0.33 0.99-0.66 1.98-1 3-7.61 6.45-17.6 8.55-27 11-0.727 0.194-1.45 0.387-2.2 0.587-12.5 3.33-12.5 3.33-18.1 3.77-3.63 0.198-3.63 0.198-4.86 2.3-0.985 2.89-1.12 5.37-1.21 8.43-0.0572 1.9-0.0572 1.9-0.116 3.83-0.0314 1.41-0.062 2.82-0.092 4.24-0.0379 1.5-0.0758 3.01-0.114 4.51-0.456 19.5-0.42 38.9-0.399 58.4 0.00564 5.4 0.00234 10.8-0.00344 16.2-0.021 23.1 0.135 46.3 0.579 69.4 0.0194 1.08 0.0388 2.16 0.0588 3.28 0.0557 3.02 0.118 6.04 0.184 9.06 0.0163 0.903 0.0326 1.81 0.0495 2.74-0.291 3.95-0.291 3.95 1.26 7.27 2.78 0.0958 5.53 0.125 8.31 0.114 0.884 1.47e-4 1.77 2.95e-4 2.68 4.47e-4 3-7.04e-4 5.99-0.00858 8.99-0.0163 2.15-0.0019 4.3-0.00334 6.44-0.00436 4.67-0.00314 9.33-0.00941 14-0.018 7.5-0.0137 15-0.0201 22.5-0.0254 10-0.00759 20.1-0.0173 30.1-0.0292 28-0.033 56-0.0467 84.1-0.0516 2.1-3.81e-4 4.21-8.14e-4 6.31-0.00125 47.1-0.00924 94.1 0.139 141 0.514 3.84 0.0306 7.67 0.0608 11.5 0.091 0.758 0.00597 1.52 0.0119 2.3 0.0181 8.23 0.0647 16.5 0.128 24.7 0.19 0.718 0.00548 1.44 0.011 2.18 0.0166 33 0.251 66 0.242 99 0.2 34.7-0.0448 69.5-0.00403 104 0.221 1.27 0.00824 1.27 0.00824 2.57 0.0167 11.3 0.0735 22.6 0.151 33.9 0.229 55.9 0.385 112 0.648 168 0.659 5.93 0.00128 11.9 0.00501 17.8 0.00974 7.91 0.00608 15.8 0.00614 23.7 0.00175 2.89-0.00147 5.78-7.88e-4 8.68 0.00184 3.94 0.0034 7.88-0.00123 11.8-0.00676 1.14 0.00203 2.29 0.00405 3.46 0.00614 5.72-0.0152 11.2-0.274 16.9-1.14 0.709-5.2 1.16-10.3 1.31-15.5 0.0205-0.731 0.0409-1.46 0.062-2.21 0.0662-2.48 0.124-4.96 0.18-7.43 0.021-0.891 0.0419-1.78 0.0635-2.7 0.635-27.9 0.529-55.8 0.518-83.7-0.00232-5.72-0.00256-11.4-0.00148-17.2 1.53e-4 -0.829 3.06e-4 -1.66 4.64e-4 -2.51 3.2e-4 -1.69 6.44e-4 -3.37 9.73e-4 -5.06 0.00283-15.7-3.88e-4 -31.4-0.0058-47.1-0.00443-13.3-0.00367-26.5 9.19e-4 -39.8 0.106-92.7 0.106-92.7-0.576-185-0.00981-0.822-0.0196-1.64-0.0297-2.49-0.0542-4.54-0.114-9.07-0.183-13.6-0.0286-1.9-0.0542-3.79-0.0796-5.69-0.0195-1.12-0.0391-2.24-0.0592-3.4-0.0228-1.41-0.0228-1.41-0.046-2.85-0.226-4.79-0.723-9.57-1.16-14.3-18.5 0.33-37 0.66-56 1v-1h5c0.33-0.99 0.66-1.98 1-3 4.33-0.148 8.66-0.29 13-0.427 1.46-0.0469 2.92-0.0953 4.37-0.146 14.9-0.511 29.7-0.427 44.6-0.427z" fill="#020305"/>
<path transform="translate(28.6 261)" d="m0 0c0.932 0.00653 1.86 0.0131 2.82 0.0198 12.3 0.213 24.5 1.28 36.8 2.21 18.3 1.38 36.5 2.25 54.9 2.14 0.495 1.49 0.495 1.49 1 3-0.99 0.66-1.98 1.32-3 2-0.0928 1.18-0.0928 1.18-0.188 2.38-0.812 2.62-0.812 2.62-2.58 3.56-0.717 0.29-1.43 0.58-2.17 0.879-3.09 1.31-3.09 1.31-4.93 3.97-0.3 1.37-0.559 2.75-0.777 4.14-0.555 3.25-2.02 6.08-3.36 9.08-0.289 1.01-0.578 2.02-0.875 3.06-1.12 2.94-1.12 2.94-3.75 5.62-1.79 1.99-2.39 2.79-2.31 5.5 0.103 0.844 0.206 1.69 0.312 2.56 0.493 8.57-5.49 15.3-10 22.1-2.05 3.27-3.7 6.68-5.36 10.2h2c-0.52 7.28-2.77 13.6-5.31 20.4-0.391 1.07-0.782 2.14-1.19 3.25-6.62 18-6.62 18-10.8 25.4-2.69 5.19-2.79 8.09-1.72 13.7 0.0573 3.74-2.25 5.55-4.62 8.26-1.65 2.5-1.58 3.71-1.35 6.66 0.481 6.19-2.19 10.9-4.88 16.3-1.46 2.94-1.46 2.94-0.234 5.08 0.369 0.668 0.737 1.34 1.12 2.02-0.286 5.27-1.84 9.22-4.12 13.9-2.59 5.43-2.59 5.43-2.44 11.3 0.641 4.28 0.125 5.01-1.94 8.62-2.7 4.77-2.54 7.58-1.64 12.9 0.218 3.6-1.67 5.55-3.86 8.26-1.13 3.12-1.13 6.24-1.24 9.53-0.234 6.79-1.01 12-3.93 18.3-0.905 2.4-0.918 3.86-0.707 6.39 0.284 4.59-1.36 8.09-3.19 12.2-2.02 4.57-3.33 8.08-2.44 13.1 0.985 5.68-0.898 9.73-3.18 14.8-1.86 4.22-2.76 7.87-3.19 12.5-0.726 6.16-3.06 9.4-7.15 14-2.54 2.87-4.21 5.84-5.98 9.23-0.33-1.32-0.66-2.64-1-4-1.65 0.66-3.3 1.32-5 2-0.25 2.92-0.25 2.92 0 6 0.99 0.66 1.98 1.32 3 2 0.524 2.15 0.524 2.15 0.73 4.8 0.0806 0.959 0.161 1.92 0.244 2.91 0.0703 1.01 0.141 2.01 0.213 3.05l0.248 3c0.379 4.76 0.67 9.47 0.564 14.2-3.98 1.33-7.85 1.03-12 1-0.0882-3.65-0.141-7.29-0.188-10.9-0.0251-1.02-0.0503-2.04-0.0762-3.1-0.056-5.84 0.402-10.6 2.61-16 0.862-2.23 0.862-2.23 0.65-5.94-0.33-0.33-0.66-0.66-1-1-0.254-5.07 0.0546-9.66 0.941-14.7 1.25-7.87 1.68-15.7 2.06-23.7 0.119-2.46 0.249-4.92 0.381-7.38 2.03-16.6 2.03-16.6-0.387-32.3 0.0636-2.68 0.188-5.32 0.375-8 0.0438-0.737 0.0877-1.47 0.133-2.23 0.362-5.5 0.362-5.5 1.49-7.77 0.0207-1.71-0.00899-3.42-0.0625-5.12-0.0496-4.73 0.318-9.19 1.01-13.9 1.43-10.6 1.67-21.2 2.02-31.9 0.078-2.21 0.157-4.42 0.236-6.63 0.166-4.66 0.329-9.31 0.489-14 0.413-12 0.849-24.1 1.29-36.1 0.043-1.17 0.086-2.35 0.13-3.56 0.654-17.8 1.49-35.5 2.64-53.2 1.12-17.4 1.53-34.8 1.32-52.3-0.0939-7.8-0.135-15.6 0.239-23.4 0.0591-1.27 0.118-2.55 0.179-3.86 0.516-3.1 0.516-3.1 1.83-5.01 3.07-1.99 6.7-1.52 10.2-1.47z" fill="#020305"/>
<path transform="translate(646,239)" d="m0 0c6.25 4.86 11.6 10.4 16.7 16.5 1.29 1.58 1.29 1.58 3.33 2.45v2c0.538 0.217 1.08 0.433 1.63 0.656 3.21 1.82 5.67 4.3 8.31 6.84 7.92 7.46 16.2 14.2 25.5 19.9 4.55 2.81 8.79 5.91 13 9.19 0.592 0.456 1.18 0.911 1.79 1.38 3.41 2.69 6.29 5.38 8.77 8.99 0.25 2.81 0.25 2.81 0 5h2c0.00214-1.52 0.00214-1.52 0.00432-3.08 0.0167-9.58 0.0595-19.2 0.128-28.7 0.0343-4.92 0.0594-9.85 0.0635-14.8 0.00428-4.75 0.0327-9.51 0.0779-14.3 0.013-1.81 0.0173-3.63 0.0127-5.44-0.0049-2.54 0.0212-5.08 0.0544-7.62-0.0129-1.12-0.0129-1.12-0.0261-2.27 0.0861-3.93 0.556-5.66 3.04-8.77 3.6-2.8 6.17-3.18 10.6-3.23 1.51-0.0193 1.51-0.0193 3.04-0.0389 1.08-0.00739 2.17-0.0148 3.29-0.0224 1.12-0.00807 2.23-0.0161 3.38-0.0245 2.36-0.0138 4.72-0.0246 7.09-0.0324 3.61-0.0172 7.22-0.0611 10.8-0.105 2.29-0.0101 4.59-0.0186 6.88-0.0254 1.08-0.0175 2.16-0.035 3.27-0.0531 7.54 0.0218 7.54 0.0218 11.5 2.51 0.881 0.977 0.881 0.977 1.78 1.97-0.579-0.00222-1.16-0.00444-1.75-0.00673-6.07-0.0223-12.1-0.0373-18.2-0.0482-2.26-0.00501-4.52-0.0118-6.78-0.0205-3.26-0.0122-6.52-0.0178-9.79-0.0222-1.5-0.00774-1.5-0.00774-3.03-0.0156-6.17-4.85e-4 -12.4 0.099-18.5 1.11-2.03 2.03-1.26 6.22-1.31 9.01-0.031 1.27-0.031 1.27-0.0626 2.57-0.0668 2.85-0.125 5.7-0.182 8.55-0.0211 0.991-0.0421 1.98-0.0638 3-0.517 24.7-0.495 49.4-0.446 74.2 0.0105 5.98 0.0149 12 0.0198 17.9 0.0105 11.6 0.0274 23.2 0.0488 34.8 1.44 0.484 2.87 0.966 4.31 1.45 0.8 0.269 1.6 0.538 2.42 0.815 2.63 0.857 5.28 1.56 7.97 2.2 0.993 0.241 1.99 0.481 3.01 0.729 1.02 0.245 2.04 0.491 3.1 0.743 23.1 5.68 23.1 5.68 30.2 10.1 0.33 0.99 0.66 1.98 1 3-4.25-0.625-8.2-1.63-12.3-2.88-6.98-2-14-2.85-21.2-3.62-10.8-1.17-21-2.82-31.1-6.99-5.45-2.07-11.1-2.82-16.9-3.7-1.11-0.177-2.22-0.354-3.36-0.537-2.71-0.433-5.43-0.858-8.14-1.28-0.33 0.99-0.66 1.98-1 3-7.79 0.102-11.9-1.21-17.8-6.27-6.12-4.72-12.5-4.98-19.9-4.07-16.4 1.7-32.2-0.599-48.3-3.66-0.98-0.182-1.96-0.364-2.97-0.551-16-3.01-31.7-7.14-47.4-11.5-2.55-0.693-5.09-1.38-7.65-2.05-0.666-0.175-1.33-0.351-2.02-0.532-1.85-0.487-3.71-0.971-5.56-1.45-12.3-3.45-23.1-9.26-33.8-16.1-6.71-4.27-13-7.48-20.6-9.85-1.73-0.582-3.46-1.16-5.19-1.75-1.27-0.418-2.54-0.836-3.81-1.25 0.33-0.99 0.66-1.98 1-3 2.71-1.35 5.01-1.07 8-1-0.33-0.99-0.66-1.98-1-3 3.23-2.69 5.62-3.23 9.69-2.94 8.2 1.12 15.3 4.67 22.3 8.94-0.217-0.675-0.433-1.35-0.656-2.05-0.418-1.34-0.418-1.34-0.844-2.7-0.278-0.882-0.557-1.76-0.844-2.67-0.656-2.58-0.656-2.58-0.656-6.58h3c0.454 0.825 0.908 1.65 1.38 2.5 0.804 1.24 0.804 1.24 1.62 2.5 1.67 0.0417 3.33 0.0417 5 0 1.81 1.81 1.81 1.81 3 4v3h2v2c1.65-0.66 3.3-1.32 5-2 0.835 1.14 0.835 1.14 1.69 2.31 2.13 2.76 2.13 2.76 4.88 4.19 2.44 1.5 2.44 1.5 3.75 3.94 2.86 4.34 6.91 5.89 11.9 7.09 5.1 0.516 7.93-0.93 12-4.03 3.84-3.35 7.23-6.95 10.4-10.9 1.47-1.57 1.47-1.57 4.47-2.57 0.99 0.66 1.98 1.32 3 2 3.31-0.313 4.84-1.48 6.95-3.98 3.35-4.12 5.52-8.63 7.8-13.4 4.92-9.83 10.5-16.2 20.2-21.6h2c0.33 1.65 0.66 3.3 1 5-0.494 0.41-0.987 0.82-1.5 1.24-0.641 0.539-1.28 1.08-1.94 1.63-0.638 0.534-1.28 1.07-1.93 1.62-1.74 1.43-1.74 1.43-2.63 3.51 0.99 0.33 1.98 0.66 3 1-0.433 0.554-0.866 1.11-1.31 1.68-0.557 0.724-1.11 1.45-1.69 2.2-0.557 0.719-1.11 1.44-1.69 2.18-1.5 1.83-1.5 1.83-1.31 3.95 2.31 0.33 4.62 0.66 7 1-1.85 3.71-6.67 4.79-10.3 6.46-2.98 1.31-2.98 1.31-3.69 4.54 0.773-0.217 0.773-0.217 1.56-0.438 3.12-0.721 6.26-1.14 9.44-1.56-0.784 0.598-1.57 1.2-2.38 1.81-2.77 2.1-2.77 2.1-4.62 5.19h-2v2c1.98-0.33 3.96-0.66 6-1-2.59 1.72-5.2 3.3-7.88 4.88-3.61 2.15-6.91 4.41-10.1 7.12-0.66 0.33-1.32 0.66-2 1v2c0.866-0.392 1.73-0.784 2.62-1.19 3.82-1.62 7.68-3.15 11.6-4.62 1.19-0.46 2.38-0.92 3.61-1.39 3.21-0.793 3.21-0.793 5.63 0.0703 0.519 0.375 1.04 0.75 1.57 1.14-2.67 3.21-5.92 4.51-9.69 6.19-1.18 0.53-2.36 1.06-3.57 1.61-0.904 0.398-1.81 0.797-2.74 1.21v1h11v3c-0.782 0.315-1.56 0.629-2.37 0.953-1.01 0.428-2.02 0.856-3.07 1.3-1.01 0.418-2.02 0.835-3.06 1.27-0.826 0.49-1.65 0.98-2.5 1.48-0.33 1.32-0.66 2.64-1 4 3.3-0.99 6.6-1.98 10-3 0.99 1.32 1.98 2.64 3 4 0.949-0.33 1.9-0.66 2.88-1 3.12-1 3.12-1 5.12-1 0.66 0.99 1.32 1.98 2 3 4.58-0.411 4.58-0.411 8.81-2.01 2.99-1.36 5.66-1.35 8.94-1.49 5.36-0.308 10.1-0.959 15.2-2.5 0.0606-1.13 0.121-2.26 0.184-3.43 0.0844-1.48 0.169-2.96 0.254-4.45 0.059-1.12 0.059-1.12 0.119-2.26 0.33-5.64 0.33-5.64 1.44-7.86 4.63 0.997 8.51 2.74 12 6 0.94 2.25 1.31 4.26 1.64 6.68 0.365 2.33 1.03 4.11 1.99 6.26 1.83 4.6 1.85 9.18 1.38 14.1-0.33 0.66-0.66 1.32-1 2 0.585 0.116 1.17 0.232 1.77 0.351 2.66 0.528 5.32 1.06 7.98 1.59 1.38 0.274 1.38 0.274 2.79 0.553 0.889 0.177 1.78 0.354 2.7 0.537 0.817 0.162 1.63 0.325 2.48 0.492 1.46 0.307 2.92 0.643 4.37 1.01 3.18 0.775 5.65 0.867 8.92 0.467 2.5-2.42 2.5-2.42 3.82-4.36 1.18-1.64 1.18-1.64 3.75-4.01 6.07-6.53 7.11-13.3 7.62-22 0.136-1.97 0.275-3.93 0.418-5.9 0.0531-0.86 0.106-1.72 0.161-2.61 0.234-2.12 0.234-2.12 1.23-4.12h2c-0.433-0.804-0.866-1.61-1.31-2.44-1.28-2.71-2.16-5.04-3-7.88-1.68-5.21-4.45-9.31-7.69-13.7-0.742-1.03-1.49-2.06-2.25-3.12-3.81-3.98-8.19-6.82-12.8-9.88-1.27-0.933-2.55-1.87-3.81-2.81-3.01-2.23-3.01-2.23-6-3.31-2.19-0.875-2.19-0.875-4.19-3.88-0.593-0.146-1.19-0.291-1.8-0.441-7.94-2.01-14.2-10.6-19-16.9-3.66-4.4-7.93-8.11-12.2-11.9-2.78-2.5-5.51-5.02-8.05-7.76v-2c-0.585-0.279-1.17-0.559-1.77-0.847-2.09-1.08-3.94-2.28-5.88-3.61-4.43-2.8-8.84-4.09-13.9-5.3-0.811-0.208-1.62-0.415-2.46-0.629-22.2-5.55-42.5-1.25-64.4 3.4-0.703 0.148-1.41 0.297-2.13 0.45-1.87 0.405-3.73 0.827-5.59 1.26-8.51 1.92-16.9 3.1-25.6 3.92-1.38 0.138-2.76 0.277-4.15 0.417-2.9 0.293-5.81 0.581-8.71 0.867-7.54 0.743-15.1 1.52-22.6 2.3-0.739 0.0762-1.48 0.152-2.24 0.231-24.3 2.51-48.7 5.27-72.6 10.5-0.957 0.207-1.91 0.414-2.9 0.627-14.9 3.26-29.2 7.51-43.5 12.5-4.42 1.51-8.89 2.85-13.4 4.18-2.21 0.632-2.21 0.632-4.2 1.69-1.01-0.103-2.02-0.206-3.06-0.312-4.14 0.328-5.05 0.843-8.25 3.19-4.1 2.98-7.48 4-12.4 4.76-2.6 0.426-4.86 1.25-7.24 2.37v-3c-3.97 0.284-6.2 0.941-9.06 3.62-0.969 0.784-1.94 1.57-2.94 2.38-1.09-0.327-1.09-0.327-2.2-0.66-4.47-0.541-7.09 2.06-10.6 4.6-0.693 0.481-1.39 0.963-2.1 1.46-1.71 1.19-3.4 2.39-5.09 3.6-0.33-0.99-0.66-1.98-1-3-4.64 0.332-6.98 1.53-10.4 4.66-2.62 2.22-5.57 3.71-8.59 5.34-0.33-0.99-0.66-1.98-1-3-5.02 1.25-8.25 3.53-12.2 6.76-1.83 1.24-1.83 1.24-4.83 1.24-0.33-0.99-0.66-1.98-1-3-3.27 1.01-6.2 2.11-9.25 3.69-0.908 0.433-1.82 0.866-2.75 1.31-0.66-0.33-1.32-0.66-2-1 0.33-0.66 0.66-1.32 1-2-6.14 1.61-6.14 1.61-12 4-0.495 1.49-0.495 1.49-1 3-0.33-1.32-0.66-2.64-1-4-3.35-1.12-5.59-0.737-9 0-0.33-0.33-0.66-0.66-1-1-4.91-0.457-7.71 0.711-12 3h-3v-2c-4.74 0.6-8.68 1.93-13.1 3.81-1.19 0.501-2.37 1-3.6 1.52-3.37 1.53-3.37 1.53-6.04 3.85-3.14 2.47-5.42 2.12-9.3 1.82-0.33 0.99-0.66 1.98-1 3h-3c-1.68-5.04 0.899-9.31 3-14 5.95-11 5.95-11 12-14 2.06 0.0625 2.06 0.0625 4 1 0.536 0.67 1.07 1.34 1.62 2.03 3.3 2.74 6.21 2.53 10.3 2.41 1.22-0.0198 1.22-0.0198 2.46-0.04 18.4-0.507 36.9-2.28 54.6-7.4 0.992-0.28 1.98-0.56 3.01-0.849 17.1-4.86 34.1-10.2 50.6-16.8 7.76-3.1 15.6-5.8 23.6-8.25 0.968-0.298 1.94-0.597 2.93-0.904 4.94-1.48 9.72-2.91 14.9-3.22 3.44 1.94 3.44 1.94 6 4v-6c3.56-1.04 7.12-2.08 10.7-3.12 0.969-0.284 1.94-0.567 2.94-0.859 2.17-0.635 4.35-1.26 6.53-1.88 2.74-0.789 5.44-1.65 8.15-2.53 16-5.1 32.4-7.21 49-9.41 2.41-0.32 4.81-0.646 7.21-0.974 20.2-2.75 40.4-5.21 60.7-6.95 14.3-1.23 28.5-3.2 42.6-5.36 4.75-0.719 9.52-1.37 14.3-1.97 1.95-0.253 1.95-0.253 3.95-0.512 2.41-0.309 4.81-0.611 7.22-0.902 6.84-0.894 13.2-2.42 19.7-4.61 21.9-6.68 48.9 0.0369 67 13.1z" fill="#020305"/>
<path transform="translate(407 512)" d="m0 0c1.69 0.00967 1.69 0.00967 3.41 0.0195 2.96 0.168 2.96 0.168 5.96 1.17 1.39 2.21 1.39 2.21 2.69 4.94 0.437 0.896 0.874 1.79 1.32 2.71 0.988 2.35 0.988 2.35 0.988 4.35 0.543 0.257 1.09 0.513 1.64 0.777 2.79 1.45 5.39 3.1 8.04 4.79 5.23 3.26 10.6 6.29 16 9.19 0.676 0.364 1.35 0.728 2.05 1.1 4.42 2.33 8.91 4.25 13.6 6.06 2.92 1.17 5.78 2.44 8.65 3.74 13.3 6.13 13.3 6.13 27.1 10.7 5.59 1.47 10.4 2.86 13.9 7.69 1.37 3.66 2.36 7.24 3.21 11.1 0.26 0.973 0.521 1.95 0.789 2.95 0.66 0.33 1.32 0.66 2 1v-16c4.87 2.44 5.05 4.12 7 9 0.66 0.33 1.32 0.66 2 1l2-4c3.24 0.559 4.93 1.41 7 4v2h2c1.41 1.47 1.41 1.47 3.06 3.5 2.69 3.2 5.5 5.93 8.69 8.62 4.78 4.14 6.72 7.74 8.25 13.9-2.31-1.98-4.62-3.96-7-6 0.33 1.32 0.66 2.64 1 4 0.0389 2.33 0.0449 4.67 0 7-2.97-0.495-2.97-0.495-6-1-0.33 0.99-0.66 1.98-1 3h-3v-2c-0.99 0.33-1.98 0.66-3 1-2.84 0.158-5.66 0.278-8.5 0.375-6.71 0.275-13.1 0.977-19.8 2.19-7.31 1.29-14.5 1.76-21.9 1.81-0.948 0.0136-1.9 0.0272-2.87 0.0413-15.3-0.0991-28-8.61-40-17.4-0.99-0.66-1.98-1.32-3-2-0.144-0.66-0.289-1.32-0.438-2-0.375-2.21-0.375-2.21-2.62-3.25-0.959-0.371-0.959-0.371-1.94-0.75 0.495-1.49 0.495-1.49 1-3-0.99-0.495-0.99-0.495-2-1v-2c-1.65-0.33-3.3-0.66-5-1-0.0735-0.615-0.147-1.23-0.223-1.86-0.588-2.31-0.588-2.31-2.77-3.37-0.806-0.316-1.61-0.632-2.44-0.957-0.803-0.324-1.61-0.647-2.43-0.98-1.05-0.412-1.05-0.412-2.13-0.832-0.99-0.495-0.99-0.495-2-1v-2c3.96 0.33 7.92 0.66 12 1-0.33-0.99-0.66-1.98-1-3 2.15-2.39 3.67-3.87 6.69-5.06 0.763-0.309 1.53-0.619 2.31-0.938 0.33-0.99 0.66-1.98 1-3h2c-0.33-0.99-0.66-1.98-1-3-0.387 0.494-0.773 0.987-1.17 1.5-0.521 0.641-1.04 1.28-1.58 1.94-0.51 0.638-1.02 1.28-1.55 1.93-2.69 2.57-4.83 2.61-8.47 2.68-7.14-0.421-10.8-1.48-16.2-6.05-1.33-0.526-1.33-0.526-2.69-1.06-2.31-0.938-2.31-0.938-4.04-2.75-3.17-3.06-6.84-5.03-10.7-7.19-3.39-1.99-5.06-3.41-6.6-7-1.03-0.557-2.06-1.11-3.12-1.69-2.88-2.31-2.88-2.31-3.41-4.25-0.286-6.87 1.75-13 6.4-18.1 5.65-5.15 10-7.23 17.8-7.14z" fill="#FCFCFC"/>
<path transform="translate(983 383)" d="m0 0c2.56 2.24 4.98 4.56 7.37 6.98 0.577 0.579 1.15 1.16 1.75 1.75 11 11.9 14.2 26.5 14.2 42.2-0.953 11-5.67 21.7-13 30-3.16 2.66-6.48 4.86-10 7-0.608 0.411-1.22 0.822-1.84 1.25-10.8 6.97-27.6 6.24-39.8 3.63-5.15-1.51-9.76-3.82-13.4-7.88-1.4-3.87-1.16-7.95-1.18-12-0.00657-0.804-0.0131-1.61-0.0199-2.44-0.0197-2.65-0.0314-5.31-0.0414-7.96-0.00408-0.907-0.00815-1.81-0.0124-2.75-0.0208-4.8-0.0351-9.59-0.0445-14.4-0.0111-4.96-0.0455-9.91-0.0852-14.9-0.0261-3.81-0.0345-7.62-0.0381-11.4-0.00488-1.83-0.0165-3.66-0.035-5.48-0.0243-2.55-0.0234-5.11-0.0165-7.66-0.0128-0.755-0.0256-1.51-0.0388-2.29 0.0342-3.44 0.251-5.37 2.32-8.17 3.08-2.18 6.15-2.47 9.82-2.8 0.717-0.0744 1.43-0.149 2.17-0.226 14-1.37 30.2-1.42 41.8 7.49z" fill="#FDFDFD"/>
<path transform="translate(515 490)" d="m0 0c7.1 2.03 7.1 2.03 14.4 3.3 9.7 1.26 9.7 1.26 12.6 4.73 0.963 1.91 1.87 3.84 2.73 5.8 2.36 5.07 5.44 8.16 10.3 10.9 4.2 1.37 8.48 2.36 12.8 3.19 7.12 1.42 11 3.6 15.2 9.81 3.57 0.736 3.57 0.736 7 1-0.0206 1.01-0.0412 2.02-0.0625 3.06 0.371 2.87 0.902 3.79 3.06 5.79 1.6 1.16 3.22 2.29 4.87 3.38 2.13 1.77 2.13 1.77 3.07 4.26 2.16 5.11 8.3 7.16 13.1 9.52 2.99 1.19 5.9 2.12 9 3-1.35 5.56-5.41 8.93-10 12-3.75 0.875-3.75 0.875-7 1-2.85 0.408-3.74 0.743-5.81 2.81-5.61 5.61-11.3 7-19.1 7.38-5.26-0.0706-9.67-1.26-14.1-4.19-0.33-0.99-0.66-1.98-1-3-1.77-0.703-1.77-0.703-3.94-1-3.55-0.688-7.02-1.46-10.5-2.44-0.824-0.226-1.65-0.451-2.5-0.684-2.07-0.879-2.07-0.879-4.07-3.88-3.58-0.25-3.58-0.25-7 0 0.33-1.65 0.66-3.3 1-5-2.64-0.99-5.28-1.98-8-3 0.66-0.33 1.32-0.66 2-1-0.33-0.99-0.66-1.98-1-3-3.96-0.33-7.92-0.66-12-1v-6c-1.05-0.227-2.1-0.454-3.19-0.688-4.04-1.15-5.87-3.3-8.81-6.31-2.41-1.58-4.88-3.01-7.38-4.45-2.54-1.5-4.95-3.12-7.38-4.8-2.49-1.69-4.3-2.77-7.19-3.69-6.06-2.1-11.5-5.85-15.2-11.1-1.27-4.27-1.86-6.99 0.227-11.1 3.98-6.35 8.89-11.9 15.9-14.8 1.92-0.44 3.86-0.81 5.81-1.12 0.996-0.168 1.99-0.335 3.02-0.508 6.97-0.808 12.5 0.029 19.2 1.95z" fill="#FCFCFC"/>
<path transform="translate(976,369)" d="m0 0c1.37 0.275 1.37 0.275 2.76 0.555 14.7 3.48 27.6 11.2 36.1 23.8 8.87 15.2 9.87 31.6 6.12 48.6-4.67 16.2-14.8 29.3-29.6 37.5-11.8 5.25-24.7 6.67-37.5 6.64-0.96 9.57e-4 -1.92 0.00191-2.91 0.0029-2.03 6.78e-4 -4.06-0.00115-6.09-0.00534-3.03-0.00528-6.06-8.2e-5 -9.09 0.00635-9.9 0.00384-19.8-0.136-29.7-0.582-0.893-0.0387-1.79-0.0775-2.71-0.117-6.18-0.312-6.18-0.312-8.43-1.44 0.125-2.31 0.125-2.31 1-5 4.53-2.98 8.55-3.64 14-5v-92c-3.3-0.66-6.6-1.32-10-2-0.66-0.33-1.32-0.66-2-1 0.438-2.31 0.438-2.31 2-5 6.06-2.98 12.9-3.8 19.6-4.62 1.44-0.187 1.44-0.187 2.92-0.378 17.7-2.22 35.9-3.61 53.5 0.00317zm-37.4 6.75c-0.69 0.0616-1.38 0.123-2.09 0.187-3.04 0.358-5.21 0.837-7.72 2.62-2.5 3.38-2.36 6.4-2.3 10.4-0.0038 0.802-0.00759 1.6-0.0115 2.43-0.0074 2.65 0.014 5.3 0.0364 7.95 0.00238 1.84 0.00329 3.69 0.00278 5.53 0.00313 3.86 0.0197 7.73 0.0465 11.6 0.034 4.95 0.0416 9.89 0.0401 14.8 5.44e-4 3.81 0.0115 7.61 0.026 11.4 0.00636 1.82 0.0103 3.65 0.0118 5.47 0.00435 2.55 0.0219 5.1 0.0432 7.65-9.06e-4 0.752-0.00181 1.5-0.00275 2.28 0.0493 4.04 0.413 7.24 2.29 10.8 8.51 8.13 19.1 8.36 30.2 8.3 11.7-0.282 20.3-3.34 29.8-10.3 0.856-0.628 1.71-1.26 2.59-1.9 8.8-7.67 13.5-19.7 14.3-31 0.334-6.61-0.218-12.7-1.88-19.1-0.173-0.816-0.345-1.63-0.523-2.47-3.02-12.4-12.4-24.4-23.1-31.2-13.3-6.92-27.2-7.12-41.8-5.59z" fill="#020305"/>
<path transform="translate(341 541)" d="m0 0c0.641 0.234 1.28 0.468 1.94 0.709 1.56 0.572 3.12 1.15 4.68 1.73-0.33-1.32-0.66-2.64-1-4 3.86 0.524 5.83 1.36 8.62 4.06 6.2 5.68 12.9 10.7 20.3 14.6 3.62 1.91 5.72 3.89 8.06 7.31 1.38 1.88 1.38 1.88 3 3 0.596-0.224 1.19-0.449 1.8-0.68 2.2-0.32 2.2-0.32 4.42 1.24 13.7 13.9 23 31.7 32.8 48.4 0.583 0.999 1.17 2 1.77 3.03 0.545 0.959 1.09 1.92 1.65 2.91 0.485 0.849 0.97 1.7 1.47 2.57 1.85 4.16 1.91 8.06 1.11 12.5-1.34 3.4-2.43 5.43-5 8-3.71 0.568-7.29 0.537-11 0-3-2.31-3-2.31-5-5-2.08-2.32-3.91-3.57-6.75-4.81-4.4-2.12-7.67-4.9-11.2-8.19-1.35-1.19-2.71-2.38-4.06-3.56-0.666-0.585-1.33-1.17-2.02-1.77-1.7-1.48-3.43-2.92-5.17-4.35-2.75-2.31-2.75-2.31-4.81-4.44-1.9-2-1.9-2-4.5-3.31-2.44-1.56-2.44-1.56-3.69-3.94-2.31-3.47-5.05-4.52-8.79-6.22-0.647-0.464-1.29-0.928-1.96-1.41-0.131-0.811-0.263-1.62-0.398-2.46-0.358-2.83-0.358-2.83-3.29-4.27-1.64-0.721-1.64-0.721-3.31-1.46-5.92-2.64-5.92-2.64-7-4.81v-5c-0.33-0.99-0.66-1.98-1-3-0.585-0.276-1.17-0.552-1.77-0.836-7.53-3.94-13.3-15.6-17.9-22.7-0.446-0.67-0.892-1.34-1.35-2.03-1.79-2.83-2.96-4.86-2.96-8.26 1.2-2.64 2.23-3.58 4.69-5.09 0.664-0.431 1.33-0.861 2.01-1.3 5.27-1.88 10.7 0.905 15.7 2.74z" fill="#FCFCFC"/>
<path transform="translate(694,512)" d="m0 0c4.6 0.565 8.05 2.57 11.9 4.94 4.24 2.57 8.3 4.59 13.1 6.06 4.67 4.67 3.25 21.8 3.31 28.3-0.0119 6.52-0.807 12.5-2.54 18.8-0.734 2.75-1.14 5.4-1.52 8.21-1.24 6.45-5.61 10.4-10.4 14.6-2.61 2.95-4.01 6.31-5.63 9.88-1.25 2.24-1.25 2.24-4.25 4.24-7.95 0.718-14.8 0.656-22-3-1.05 0.0412-2.1 0.0825-3.19 0.125-2.81-0.125-2.81-0.125-5-2.06-6.8-11.5-5.36-22.7-2.29-35.2 2.13-7.66 5.73-14.7 9.37-21.7 0.755-1.47 1.49-2.95 2.2-4.44 2.69-5.6 2.69-5.6 4.9-6.7 0.309-0.804 0.619-1.61 0.938-2.44 1.06-2.56 1.06-2.56 4.06-4.56 0.369-1.66 0.696-3.33 1-5 1.65-3.67 3.47-6.87 6-10z" fill="#FCFCFC"/>
<path transform="translate(1463,366)" d="m0 0c3.73 7.45 0.273 19.2-1 27-2.38 0.625-2.38 0.625-5 1-2-2-2-2-3-16-12.2 0.33-24.4 0.66-37 1-0.0452 11.4-0.0819 22.7-0.104 34.1-0.0104 5.27-0.0246 10.5-0.0473 15.8-0.0218 5.09-0.0337 10.2-0.0389 15.3-0.00369 1.94-0.0109 3.88-0.0217 5.82-0.0146 2.72-0.0165 5.44-0.0156 8.16-0.0108 1.2-0.0108 1.2-0.0218 2.42 0.0199 5.44 0.0955 11.3 4.13 15.3 0.74 0.449 1.48 0.897 2.24 1.36 0.797 0.487 1.59 0.975 2.41 1.48 2.29 1.19 4.52 2.08 6.96 2.9 1.15 0.454 2.31 0.908 3.5 1.38 0.719 2.09 0.719 2.09 1 4-0.751-0.0715-1.5-0.143-2.28-0.217-11.4-0.956-22.7-0.896-34.1-0.846-2.01 0.00503-4.02 0.00959-6.02 0.0137-4.87 0.0109-9.73 0.0281-14.6 0.0488-0.495-0.99-0.495-0.99-1-2 1.82-2.33 2.79-2.96 5.74-3.55 2.08-0.213 4.17-0.421 6.25-0.625 4.04-1.1 5.44-2.51 8.01-5.82 0.706-3.1 0.633-6.12 0.568-9.29 0.0011-1.39 0.0011-1.39 0.00221-2.81-0.00348-3.06-0.0423-6.11-0.0816-9.17-0.00933-2.12-0.0164-4.25-0.0214-6.37-0.0191-5.58-0.0682-11.2-0.124-16.7-0.0512-5.7-0.074-11.4-0.0992-17.1-0.0536-11.2-0.139-22.4-0.244-33.5-4.06-0.0495-8.11-0.0858-12.2-0.11-1.38-0.01-2.76-0.0237-4.14-0.041-1.99-0.0243-3.97-0.0346-5.96-0.0444-1.19-0.0105-2.39-0.0209-3.62-0.0317-3.02 0.22-4.66 0.492-7.12 2.23-1.25 2.39-2.28 4.63-3.25 7.12-0.268 0.659-0.536 1.32-0.812 2-0.658 1.62-1.3 3.25-1.94 4.88-2.34-0.256-4.68-0.593-7-1-1.89-3.78-0.0173-8.42 0.75-12.4 0.17-0.967 0.34-1.93 0.516-2.93 0.175-0.929 0.351-1.86 0.531-2.81 0.158-0.851 0.316-1.7 0.479-2.58 0.812-2.51 1.67-3.61 3.72-5.24 1.95-0.328 1.95-0.328 4.12-0.25 1.06 0.0232 1.06 0.0232 2.13 0.0469 2.27 0.168 4.5 0.423 6.76 0.708 5.16 0.576 10.3 0.64 15.4 0.628 0.983 9.57e-4 1.97 0.00191 2.98 0.0029 2.07 6.77e-4 4.15-0.00115 6.22-0.00534 3.1-0.00529 6.21-7.25e-5 9.31 0.00635 9.68 0.00371 19.3-0.106 29-0.578 0.789-0.0382 1.58-0.0764 2.39-0.116 6.27-0.344 12.4-1.1 18.7-2.04 2.97-0.402 2.97-0.402 6.97-0.402z" fill="#020305"/>
<path transform="translate(1117 405)" d="m0 0c0.771-0.00239 1.54-0.00477 2.34-0.00723 0.875-0.00946 1.75-0.0189 2.65-0.0287 1.42 0.00911 1.42 0.00911 2.88 0.0184 0.977-0.00287 1.95-0.00574 2.96-0.0087 2.07-0.00204 4.15 0.00351 6.22 0.016 3.15 0.0159 6.31 2.19e-4 9.46-0.019 2.02 0.00198 4.03 0.00583 6.05 0.0117 0.937-0.00607 1.87-0.0121 2.84-0.0184 6.72 0.0711 12.7 0.82 18 5.39 0.548 0.69 1.1 1.38 1.66 2.09 0.566 0.692 1.13 1.38 1.71 2.1 3.79 5.18 3.05 11.7 2.35 17.8-2.43 5.37-7.09 7.97-12.3 10.4-1.73 0.629-1.73 0.629-3.73 0.629 0.584 3.77 1.65 6.54 3.55 9.84 0.773 1.35 0.773 1.35 1.56 2.73 0.541 0.928 1.08 1.86 1.64 2.81 0.526 0.92 1.05 1.84 1.59 2.79 2.36 4.09 4.75 8.07 7.55 11.9 2.11 2.96 2.11 2.96 2.11 4.96 2.85 1.51 5.68 2.63 8.75 3.62 0.799 0.26 1.6 0.521 2.42 0.789 0.603 0.193 1.21 0.387 1.83 0.586v4c-14.6 0.802-14.6 0.802-21-4-6.52-6.28-11-13.5-15.4-21.4-1.22-2.13-2.43-4.27-3.65-6.4-0.525-0.932-1.05-1.86-1.59-2.83-1.06-1.84-2.21-3.63-3.39-5.4-3.54-0.333-3.54-0.333-7 0-3.47 3.47-2.06 13.7-2.07 18.5 0.00819 3.83 0.0327 7.67 0.0681 11.5 0.957 0.472 0.957 0.472 1.93 0.953 0.826 0.428 1.65 0.856 2.5 1.3 0.824 0.418 1.65 0.835 2.5 1.27 2.07 1.48 2.07 1.48 3.07 5.48h-33c-0.33-0.66-0.66-1.32-1-2 2.36-2.74 4.64-3.76 8-5 1.81-1.81 1.14-4.61 1.15-7.05 0.00638-1.29 0.0128-2.59 0.0193-3.92 0.00153-1.42 0.00264-2.85 0.00337-4.27 0.00321-1.45 0.00657-2.9 0.0101-4.35 6e-3 -3.05 0.00784-6.09 0.00725-9.14-1.02e-4 -3.91 0.0136-7.82 0.0308-11.7 0.0111-3 0.0131-6 0.0126-8.99 0.00118-1.44 0.00562-2.88 0.0133-4.32 0.00976-2.01 0.00567-4.03 8.95e-4 -6.04 0.00143-1.15 0.00285-2.29 0.00432-3.48 0.0295-2.85 0.0295-2.85-2.25-4.7-2.32-1.04-4.65-2.04-7-3 2-3 2-3 3.9-3.38z" fill="#020305"/>
<path transform="translate(1292 369)" d="m0 0c1.22 0.00666 1.22 0.00666 2.46 0.0135 0.921 1.51e-4 1.84 3.02e-4 2.79 4.58e-4 0.996 0.0103 1.99 0.0206 3.02 0.0313 1.02 0.00283 2.04 0.00566 3.09 0.00858 3.26 0.0112 6.52 0.0363 9.78 0.0617 2.21 0.01 4.41 0.0192 6.62 0.0273 5.42 0.0221 10.8 0.0556 16.3 0.0977 0.495 2.48 0.495 2.48 1 5-1.07 0.349-2.14 0.699-3.25 1.06-1.4 0.459-2.79 0.919-4.19 1.38-0.707 0.23-1.41 0.46-2.14 0.697-3.48 0.939-3.48 0.939-6.42 2.87-0.106 2.73-0.147 5.44-0.145 8.17-0.00336 0.857-0.00672 1.71-0.0102 2.6-0.00955 2.85-0.0115 5.7-0.0125 8.55-0.00321 1.98-0.00658 3.95-0.0101 5.93-6e-3 4.15-0.00784 8.31-0.00725 12.5 1.01e-4 5.32-0.0135 10.6-0.0308 15.9-0.0111 4.09-0.0131 8.18-0.0126 12.3-0.00118 1.96-0.00559 3.92-0.0133 5.88-0.00983 2.75-0.00691 5.5-8.95e-4 8.24-0.00562 0.805-0.0112 1.61-0.017 2.44 0.027 4.87 0.517 8.94 2.26 13.5 3.01 2.33 3.01 2.33 6.62 3.94 0.611 0.302 1.22 0.605 1.85 0.916 1.5 0.737 3.01 1.44 4.52 2.15v3h-47v-3c0.603-0.254 1.21-0.508 1.83-0.77 0.799-0.344 1.6-0.688 2.42-1.04 0.789-0.336 1.58-0.673 2.39-1.02 0.779-0.385 1.56-0.771 2.36-1.17 0.699-0.328 1.4-0.657 2.12-0.995 3.08-3.28 2.4-6.92 2.34-11.2 8.76e-4 -1.42 8.76e-4 -1.42 0.00177-2.87-0.00279-3.13-0.0339-6.27-0.0652-9.4-0.00746-2.17-0.0132-4.34-0.0172-6.51-0.0153-5.72-0.0546-11.4-0.0988-17.1-0.0409-5.83-0.0592-11.7-0.0793-17.5-0.0429-11.4-0.111-22.9-0.195-34.3-0.843-0.326-1.69-0.652-2.55-0.988-1.1-0.437-2.19-0.874-3.32-1.32-1.09-0.429-2.18-0.859-3.3-1.3-2.82-1.39-2.82-1.39-4.82-4.39 2-2 2-2 3.99-2.24z" fill="#020305"/>
<path transform="translate(1232 219)" d="m0 0c5.94 0.00232 11.9 0.00255 17.8 0.00148 1.29-2.3e-4 1.29-2.3e-4 2.61-4.64e-4 1.75-3.2e-4 3.5-6.44e-4 5.25-9.73e-4 16.2-0.00281 32.4 3.64e-4 48.5 0.0058 13.9 0.00451 27.7 0.00365 41.6-9.19e-4 16.2-0.00535 32.5-0.00746 48.7-0.00439 1.73 3.18e-4 3.45 6.33e-4 5.18 9.43e-4 1.27 2.31e-4 1.27 2.31e-4 2.57 4.68e-4 5.96 8.61e-4 11.9-5.87e-4 17.9-0.00295 7.23-0.0028 14.5-0.00205 21.7 0.00328 3.68 0.00263 7.36 0.00366 11 3.51e-4 3.98-0.00353 7.97 6.83e-4 12 0.00568 1.74-0.00335 1.74-0.00335 3.52-0.00676 1.07 0.00261 2.13 0.00522 3.23 0.0079 1.38 2.44e-4 1.38 2.44e-4 2.78 4.92e-4 2.96 0.138 5.78 0.587 8.69 1.13-3.66 2.34-7.2 2.3-11.4 2.3-0.743 0.00844-1.49 0.0169-2.25 0.0256-2.47 0.0259-4.93 0.038-7.4 0.0504-1.75 0.0162-3.49 0.0334-5.24 0.0515-4.63 0.0458-9.26 0.0805-13.9 0.112-7.29 0.0516-14.6 0.119-21.9 0.188-2.49 0.0219-4.97 0.0388-7.46 0.0547-8.75 0.0676-17.5 0.233-26.2 0.505-20.4 0.631-40.8 0.899-61.1 0.98-4.44 0.0188-8.89 0.0424-13.3 0.0654-7.68 0.0391-15.4 0.0754-23 0.11-11.2 0.05-22.4 0.105-33.6 0.162-18.3 0.0922-36.6 0.181-54.9 0.268-1.09 0.00515-2.18 0.0103-3.3 0.0156-4.41 0.0208-8.82 0.0417-13.2 0.0625-12 0.0568-24 0.114-36.1 0.172-1.07 0.00515-2.14 0.0103-3.25 0.0156-18.2 0.0873-36.4 0.177-54.5 0.268-10.1 0.0505-20.2 0.0999-30.4 0.146-55.8 0.254-112 0.748-167 1.45v-1h5c0.33-0.99 0.66-1.98 1-3 49.5-1.99 99-2.36 149-2.63 2.79-0.0156 5.59-0.0316 8.38-0.0481 1.04-0.00612 1.04-0.00612 2.1-0.0124 1.39-0.0082 2.78-0.0164 4.17-0.0247 4.41-0.0258 8.82-0.0465 13.2-0.0656 12.9-0.0669 25.8-0.211 38.8-0.448 38.6-0.705 77.2-0.917 116-0.902z" fill="#020305"/>
<path transform="translate(1059,403)" d="m0 0c2.38 2.16 3.73 4.14 5.05 7.07 0.365 0.804 0.731 1.61 1.11 2.44 0.572 1.3 0.572 1.3 1.15 2.62 0.402 0.903 0.803 1.81 1.22 2.74 2.6 5.94 4.93 11.9 7.01 18 2.34 6.86 4.88 13.6 7.45 20.4 0.499 1.32 0.998 2.63 1.5 3.95 0.704 1.86 1.41 3.72 2.12 5.59 0.412 1.09 0.824 2.17 1.25 3.29 2.2 5.72 2.2 5.72 7.08 9.03 0.69 0.324 1.38 0.647 2.09 0.98 1.63 0.686 3.3 1.27 4.97 1.83 0.33 1.65 0.66 3.3 1 5h-40v-3c1.25-0.482 2.5-0.96 3.75-1.44 0.696-0.267 1.39-0.534 2.11-0.809 2.03-0.715 4.04-1.27 6.14-1.75 0.523-5.88-0.956-10.2-3.12-15.6-0.875-2.36-0.875-2.36-0.875-4.36h-30c-1.91 5.73-3.62 11.2-5 17 1.13 0.557 2.27 1.11 3.44 1.69 1.93 0.949 1.93 0.949 3.56 2.31 0.33 1.65 0.66 3.3 1 5-15.3 0.495-15.3 0.495-31 1v-4c8-4 8-4 11-5 4.6-3.02 5.9-7.15 7.97-12.1 0.43-0.988 0.859-1.98 1.3-2.99 1.28-2.95 2.52-5.91 3.76-8.88 0.337-0.8 0.674-1.6 1.02-2.42 1.46-3.48 2.9-6.97 4.31-10.5 1.16-2.89 2.39-5.74 3.66-8.58 4.38-9.91 4.38-9.91 4.95-20.6 0.0703-1.89 0.0703-1.89 2.32-4.39 4.95-2.7 4.95-2.7 6.75-3.5z" fill="#020305"/>
<path transform="translate(1259 404)" d="m0 0c1.14-0.00709 2.28-0.0142 3.46-0.0215 2.45 0.115 2.45 0.115 3.45 1.12 0.237 2.86 0.422 5.7 0.562 8.56 0.0432 0.806 0.0864 1.61 0.131 2.44 0.106 2 0.207 4 0.307 5.99-2.36-0.219-2.36-0.219-5-1-1.29-2.03-1.29-2.03-2.19-4.5-1.07-3.47-1.07-3.47-3.81-5.5-2.31-0.0285-4.63 0.0124-6.94 0.0859-0.683 0.0212-1.37 0.0425-2.07 0.0644-1.44 0.0463-2.89 0.0952-4.33 0.147-2.22 0.0779-4.43 0.145-6.65 0.211-1.4 0.0462-2.8 0.0931-4.2 0.141-1.92 0.0645-1.92 0.0645-3.88 0.13-2.82-0.107-2.82-0.107-3.93 1.22-0.0876 2-0.107 4-0.0977 6 0.00483 1.82 0.00483 1.82 0.00977 3.68 0.00838 1.28 0.0168 2.56 0.0254 3.88 0.00451 1.28 0.00902 2.57 0.0137 3.89 0.0118 3.18 0.0283 6.37 0.0488 9.55 3.73 0.0582 7.46 0.0937 11.2 0.125 1.06 0.0168 2.11 0.0335 3.2 0.0508 1.53 0.00967 1.53 0.00967 3.1 0.0195 1.41 0.0157 1.41 0.0157 2.84 0.0317 5.83-0.494 8.79-3 12.7-7.23 2 2 2 2 2.04 4.25-0.0943 0.911-0.189 1.82-0.286 2.76-0.0967 0.986-0.193 1.97-0.293 2.99-0.112 1.03-0.224 2.07-0.34 3.13-0.157 1.56-0.157 1.56-0.316 3.15-0.26 2.58-0.53 5.15-0.809 7.72-1.86-0.246-1.86-0.246-4-1-1.27-1.85-1.27-1.85-2.25-4.06-0.335-0.733-0.67-1.47-1.02-2.22-0.242-0.566-0.485-1.13-0.734-1.71-3.98-0.0289-7.96-0.0468-11.9-0.0625-1.14-0.00838-2.27-0.0168-3.44-0.0254-1.08-0.00322-2.16-0.00645-3.27-0.00977-1-0.00524-2-0.0105-3.03-0.0159-2.28-0.148-2.28-0.148-3.32 1.11-0.159 2.14-0.251 4.29-0.316 6.44-0.0419 1.31-0.0838 2.61-0.127 3.96-0.0398 1.39-0.0795 2.78-0.119 4.17-0.0432 1.39-0.0868 2.79-0.131 4.18-0.106 3.42-0.209 6.84-0.307 10.3 3.95 0.0751 7.89 0.129 11.8 0.165 1.99 0.0222 3.98 0.0604 5.97 0.0989 8.72 0.0661 17.2 0.082 24.1-5.7 1.28-1.59 2.52-3.21 3.69-4.88 0.454-0.557 0.908-1.11 1.38-1.69h3c0.811 8.43-1.29 11.1-5 20h-71c-0.33-0.66-0.66-1.32-1-2 2.77-3.81 6.63-4.07 11-5 2.45-9.57 2.31-19.1 2.26-29-0.0107-2.78-8.78e-5 -5.56 0.0127-8.34 0.00696-10.4-0.535-20.4-2.27-30.7-1.14-0.186-1.14-0.186-2.31-0.375-2.69-0.625-2.69-0.625-5.69-2.62v-3c6.99-0.145 14-0.287 21-0.427 2.37-0.048 4.74-0.0964 7.11-0.146 22.7-0.47 22.7-0.47 32-0.521z" fill="#020305"/>
<path transform="translate(1158,413)" d="m0 0c4.68 4.93 5.08 10.5 5 17-0.737 4.06-1.45 5.48-4.44 8.31-4.35 2.87-8.15 2.84-13.2 2.81-0.694 0.00387-1.39 0.00773-2.1 0.0117-5.15-0.0101-5.15-0.0101-6.27-1.14-0.254-4.47-0.185-8.96-0.188-13.4-0.0184-1.9-0.0184-1.9-0.0371-3.84-0.00193-1.21-0.00387-2.41-0.00586-3.66-0.00411-1.11-0.00822-2.23-0.0125-3.38 0.243-2.69 0.243-2.69 2.24-4.69 6.45-2.48 13.2-1.35 19 2z" fill="#FDFDFD"/>
<path transform="translate(130,276)" d="m0 0c2.08 1.84 3.38 3.69 5 6v2c2.92 0.973 4.96 1.16 8.01 1.25 0.987 0.0329 1.97 0.0657 2.99 0.0996 2.06 0.0605 4.12 0.118 6.18 0.172 16.6 0.571 16.6 0.571 22.8 5.48 1.03 1.65 2.04 3.31 3 5-0.826-0.21-1.65-0.42-2.5-0.636-11.5-2.65-22.8-2.85-34.6-2.93-2.92-0.0239-5.83-0.052-8.74-0.0918-1.8-0.0242-3.59-0.0392-5.39-0.0436-4.36-0.0546-7.77-0.27-11.7-2.3 2.62-6.89 6.3-15.4 15-14z" fill="#020305"/>
<path transform="translate(1054,424)" d="m0 0c3 1 3 1 4.15 2.95 0.355 0.836 0.71 1.67 1.08 2.53 0.392 0.917 0.784 1.83 1.19 2.78 0.4 0.966 0.799 1.93 1.21 2.93 0.407 0.947 0.815 1.89 1.23 2.87 1.95 4.63 3.65 8.89 4.14 13.9-3.27 0.0871-6.54 0.14-9.81 0.188-0.929 0.0251-1.86 0.0503-2.81 0.0762-1.34 0.0145-1.34 0.0145-2.71 0.0293-0.822 0.0157-1.64 0.0314-2.49 0.0476-2.18-0.341-2.18-0.341-5.18-3.34 3.3-8.25 6.6-16.5 10-25z" fill="#FDFDFD"/>
<path transform="translate(502,498)" d="m0 0c12.1 1.57 23.1 9.19 31 18.3 4.79 6.28 5.86 10.7 5.02 18.7-2 3.5-4.09 5.82-8 7-2.75-0.375-2.75-0.375-5-1 0.66-0.486 1.32-0.972 2-1.47 2.82-3.56 2.36-6.67 2-11-0.0483-1.13-0.0483-1.13-0.0977-2.28-0.34-4.95-1.24-7.7-4.9-11.3-1.83-1.52-3.71-2.97-5.62-4.38-1.57-1.16-1.57-1.16-3.18-2.34-3.78-2.71-7.59-5.37-11.4-7.98-0.583-0.433-1.17-0.866-1.77-1.31v-1z" fill="#020305"/>
<path transform="translate(739,392)" d="m0 0c1.87 0.483 3.73 0.968 5.59 1.5 3.22 0.667 6.38 0.777 9.66 0.938 7.34 0.404 15.1 1.23 21.8 4.56v3c-2.12-0.204-4.23-0.407-6.35-0.611-1.87-0.178-3.73-0.353-5.6-0.527-5.08-0.474-10.2-0.979-15.2-1.55-0.994-0.105-1.99-0.21-3.01-0.319-1.93-0.204-3.85-0.421-5.78-0.651-0.876-0.0898-1.75-0.18-2.66-0.272-0.772-0.0868-1.54-0.174-2.34-0.263-2.13 0.0105-2.13 0.0105-3.74 1.56-2.61 3.3-2.57 6.12-2.85 10.3-0.0838 1.19-0.168 2.38-0.254 3.6-0.0606 0.915-0.121 1.83-0.184 2.77h-5v-3l2-1c-0.598-0.949-1.2-1.9-1.81-2.88-1.2-2.74-1.28-3.81-0.379-6.71 4.2-8.5 6.61-11.4 16.2-10.4z" fill="#020305"/>
<path transform="translate(726,429)" d="m0 0c0.99 0.33 1.98 0.66 3 1 0.844 2.21 0.844 2.21 1.5 4.94 0.966 4.33 0.966 4.33 4.5 7.06 2.55 0.546 5.06 1.02 7.62 1.44 6.72 1.17 13.2 2.48 19.4 5.56-1.63 1.98-2.56 2.91-5.1 3.43-10.5 0.0163-24.4-1.42-32.6-8.73-2.57-3.29-3.14-5.5-3.34-9.71 2.38-3 2.38-3 5-5z" fill="#020305"/>
<path transform="translate(429 295)" d="m0 0c11.3 0.04 20.8 3.15 31.3 7.19 0.89 0.336 1.78 0.672 2.7 1.02 0.834 0.333 1.67 0.666 2.53 1.01 0.751 0.295 1.5 0.59 2.28 0.894 2.28 1.39 2.9 2.69 3.87 5.14-2.81-0.527-5.55-1.15-8.32-1.89-7.31-1.84-14.8-2.92-22.2-4.17-6.99-1.21-13.7-2.69-20.4-4.94 0-5.61 3.73-4.23 8.31-4.25z" fill="#020305"/>
<path transform="translate(452,422)" d="m0 0c4.49 0.5 7.16 1.46 10.8 4.19 4.27 3.16 8.64 5.83 13.3 8.36 1.93 1.46 1.93 1.46 2.71 3.63 0.0735 0.602 0.147 1.2 0.223 1.82-8.68-1.32-17.6-4.62-23.9-10.9-3.06-4.17-3.06-4.17-3.06-7.05z" fill="#020305"/>
<path transform="translate(636,394)" d="m0 0c0.99 0.33 1.98 0.66 3 1 0.319 7.86-0.643 15.3-2 23-1.32 0.33-2.64 0.66-4 1-2.51-5.02-1.55-12-0.105-17.2 0.964-2.63 1.98-5.2 3.11-7.76z" fill="#020305"/>
<path transform="translate(795,431)" d="m0 0c0.33 0.66 0.66 1.32 1 2-1.11 2.71-1.11 2.71-2.75 5.94-0.531 1.06-1.06 2.12-1.61 3.21-1.39 2.42-2.47 4.13-4.64 5.85h-2c-0.33 0.66-0.66 1.32-1 2-0.66-0.99-1.32-1.98-2-3-1.65 0.66-3.3 1.32-5 2v-3c1.64-1.37 3.31-2.7 5-4 0.516-0.722 1.03-1.44 1.56-2.19 1.44-1.81 1.44-1.81 3.38-2.25 3.1-0.846 4.18-3.06 6.06-5.56l2-1z" fill="#040507"/>
<path transform="translate(118,474)" d="m0 0h2c0.954 1.91 1.91 3.81 2.86 5.72 0.715 1.43 1.43 2.85 2.16 4.27 1.01 1.99 2 4 2.98 6 0.388 0.791 0.776 1.58 1.18 2.4 0.375 0.797 0.75 1.59 1.14 2.41 0.347 0.728 0.694 1.46 1.05 2.21 0.637 1.98 0.637 1.98-0.363 4.98-8.99-5.49-10.4-18.5-13-28z" fill="#FDFDFD"/>
<path transform="translate(365,564)" d="m0 0c2.11 1.71 2.94 2.52 3.29 5.26-0.0348 0.801-0.0696 1.6-0.105 2.43-0.0271 0.808-0.0541 1.62-0.082 2.45-0.0348 0.615-0.0696 1.23-0.105 1.86-2.64 0.33-5.28 0.66-8 1-1-2-1-2-0.293-4.35 0.365-0.896 0.73-1.79 1.11-2.71 0.357-0.898 0.714-1.8 1.08-2.72 1.11-2.21 1.11-2.21 3.11-3.21z" fill="#020305"/>
<path transform="translate(669,398)" d="m0 0c3 1 3 1 4 3 0.15 2.85 0.231 5.65 0.25 8.5 0.0206 0.785 0.0412 1.57 0.0625 2.38 0.0156 2.28 0.0156 2.28-0.312 6.12-0.99 0.66-1.98 1.32-3 2-0.941-2.82-1.12-4.53-1.1-7.45 0.00322-0.848 0.00645-1.7 0.00977-2.57 0.00838-0.881 0.0168-1.76 0.0254-2.67 0.00451-0.893 0.00902-1.79 0.0137-2.71 0.0118-2.2 0.0282-4.4 0.0488-6.61z" fill="#020305"/>
<path transform="translate(656,381)" d="m0 0c4.85 2.08 6.96 5.21 9 10 0.665 3.67 0.925 7.27 1 11-3.15-3.65-5.26-7.24-7.25-11.6-0.521-1.13-1.04-2.25-1.58-3.41-1.17-2.96-1.17-2.96-1.17-5.96z" fill="#020305"/>
<path transform="translate(486,650)" d="m0 0c0.66 0.33 1.32 0.66 2 1v6c-10.6-0.779-10.6-0.779-15-3v-3c0.516 0.165 1.03 0.33 1.56 0.5 3.21 0.659 6.17 0.682 9.44 0.5 0.66-0.66 1.32-1.32 2-2z" fill="#FDFDFD"/>
<path transform="translate(781,405)" d="m0 0c3.95 1.36 6.68 3.12 9.81 5.88 0.79 0.678 1.58 1.36 2.39 2.05 1.79 2.07 1.79 2.07 1.79 6.07-4.19-1.33-6.11-2.9-8.69-6.44-0.872-1.17-0.872-1.17-1.76-2.37-1.21-1.71-2.39-3.45-3.55-5.19z" fill="#020305"/>
<path transform="translate(443 290)" d="m0 0c0.878 0.0799 1.76 0.16 2.66 0.242 0.875 0.0645 1.75 0.129 2.65 0.195 3.01 0.849 3.81 2.06 5.41 4.68-1.94-0.309-3.88-0.623-5.81-0.938-1.08-0.174-2.16-0.348-3.27-0.527-2.92-0.535-2.92-0.535-5.92-1.54 2-2 2-2 4.28-2.12z" fill="#020305"/>
<path transform="translate(332,532)" d="m0 0c6.16 0.385 9.99 2.47 15 6-3.03 1.52-4.91 0.288-8.06-0.75-1.63-0.518-1.63-0.518-3.29-1.05-0.875-0.397-1.75-0.794-2.65-1.2-0.33-0.99-0.66-1.98-1-3z" fill="#FDFDFD"/>
<path transform="translate(444,473)" d="m0 0c4.17 0.473 6.93 1.05 10 4v2c-4.17-0.473-6.93-1.05-10-4v-2z" fill="#FDFDFD"/>
<path transform="translate(454,431)" d="m0 0c6.82 1.97 6.82 1.97 9 5v3c-3.92-1.31-6.33-2.83-9-6v-2z" fill="#020305"/>
</svg>
